<svg width="23" height="22" viewBox="0 0 23 22" fill="none" xmlns="http://www.w3.org/2000/svg">
<g clip-path="url(#clip0_12203_21948)">
<path d="M1.36914 1.14282H20.5358V4.15473H1.36914V1.14282ZM1.36914 16.4762H20.5358V19.4881H1.36914V16.4762ZM1.36914 8.26187H13.6906V11.2738H1.36914V8.26187Z" fill="white"/>
</g>
<path d="M19.7144 10.6631L19.7144 10.2418L19.245 10.2418L19.245 9.82058L18.7756 9.82058L18.7756 9.39934L18.3062 9.39934L18.3062 8.97809L17.8368 8.97809L17.8368 8.55685L17.3674 8.55685L17.3674 8.1356L16.898 8.1356L16.898 7.71436L16.4286 7.71436L16.4286 8.53264L16.4286 8.55685L16.4286 12.3481L16.4286 13.1905L16.898 13.1905L16.898 12.7693L17.3674 12.7693L17.3674 12.3481L17.8368 12.3481L17.8368 11.9268L18.3062 11.9268L18.3062 11.5056L18.7756 11.5056L18.7756 11.0843L19.245 11.0843L19.245 10.6631L19.7144 10.6631Z" fill="white"/>
<path d="M16.4286 12.3481L16.4286 13.1905L16.898 13.1905L16.898 12.7693L17.3674 12.7693L17.3674 12.3481L17.8368 12.3481L17.8368 11.9268L18.3062 11.9268L18.3062 11.5056L18.7756 11.5056L18.7756 11.0843L19.245 11.0843L19.245 10.6631L19.7144 10.6631L19.7144 10.2418L19.245 10.2418L19.245 9.82058L18.7756 9.82058L18.7756 9.39934L18.3062 9.39934L18.3062 8.97809L17.8368 8.97809L17.8368 8.55685L17.3674 8.55685L17.3674 8.1356L16.898 8.1356L16.898 7.71436L16.4286 7.71436L16.4286 8.53264M16.4286 12.3481L16.4286 8.55685L16.4286 8.53264M16.4286 12.3481L16.4286 8.53264" stroke="white" stroke-width="1.09524"/>
<defs>
<clipPath id="clip0_12203_21948">
<rect width="21.9048" height="21.9048" fill="white" transform="translate(0 0.0476074)"/>
</clipPath>
</defs>
</svg>
